<svg id="Calque_1" data-name="Calque 1" xmlns="http://www.w3.org/2000/svg" viewBox="0 0 773 327"><defs><style>.cls-1{fill:#2620f6;}</style></defs><path class="cls-1" d="M756.36,159.35a67,67,0,0,1-112.48,49.31l5.77-8a28.25,28.25,0,0,1,4-.22c27,0,37.4-16.82,37.72-17.35-3.37,1.32-16.49-.27-16.49-.27-9.13-.65,2-4.07,3.65-4.52,28-7.61,29.14-20,29.14-20-6.67,2.63-22.2-.51-22.2-.51,27.65-3.76,31.87-20.47,31.87-20.47-8.35,3.29-18.9,2.57-18.9,2.57,22.27-5.88,30.43-20.81,30.43-20.81-48.46-.45-77.3,50-91,83.23l-.59,1.43-.2.48-8,19.38,4-27.71,0,.07a67.06,67.06,0,1,1,123.24-36.61Z"/><path d="M69.17,94a14.52,14.52,0,1,1-14.52,14.52A14.43,14.43,0,0,1,69.17,94Zm-11,42.63h22v87.09h-22Z"/><path d="M149.09,170.08c-18.92-6.61-40.23-16.9-40.23-40.79,0-18.19,16.16-36.38,42.07-36.38,26.83,0,41.9,20.39,41.9,20.39l-15.26,15.07s-10.65-14.51-26.64-14.51c-11,0-19.66,6.79-19.66,15.43,0,11.21,10.11,14.7,27.75,21.31,19.66,7.35,36,16.17,36,39.51s-20.58,35.83-44.83,35.83c-32.16,0-47-26.28-47-26.28l16.54-14s11,19.29,30.5,19.29c11,0,22.41-4.41,22.41-14.88C172.61,179.27,164.35,175.41,149.09,170.08Z"/><path d="M229.57,94a14.52,14.52,0,1,1-14.52,14.52A14.44,14.44,0,0,1,229.57,94Zm-11,42.63h22.05v87.09H218.54Z"/><path d="M302.7,225.94c-22.6,0-42.45-18.93-42.45-45.75s19.85-45.76,42.45-45.76A31.19,31.19,0,0,1,329,148V136.64h20.4v87.83c0,30.32-22.42,43.73-46.86,43.73-25,0-41.34-16.54-41.34-16.54l12.5-16.9s12.12,12.86,28.84,12.86c17.09,0,24.81-9.37,24.81-22.42V214.73C324.38,218.4,316.48,225.94,302.7,225.94Zm24.62-58.8S321.07,155,306.56,155c-14.89,0-23.89,10.84-23.89,25.18s9,25.17,23.89,25.17c14.33,0,20.76-12.13,20.76-12.13Z"/><path d="M450.05,167.32v56.41H428V172.84c0-12.5-7.71-17.83-17.27-17.83-11.39,0-17.27,11.21-17.27,11.21v57.51h-22V136.64H392v12.68a30.1,30.1,0,0,1,26.09-14.89C435,134.43,450.05,146.38,450.05,167.32Z"/><path d="M486.61,94a14.52,14.52,0,1,1-14.51,14.52A14.43,14.43,0,0,1,486.61,94Zm-11,42.63h22.05v87.09H475.59Z"/><path d="M515.09,136.64h17.28V115.33c0-24.26,17.08-32.71,31.23-32.71,12.13,0,19.29,4.59,19.29,4.59l-8.26,18.56a15.27,15.27,0,0,0-8.82-2.57c-4.23,0-11.4,2.39-11.4,13.23v20.21h21.32v19.84H554.41v67.25h-22V156.48H515.09Z"/></svg>