<svg id="logo_isignif_white" data-name="logo_isignif_white" xmlns="http://www.w3.org/2000/svg"
     viewBox="0 0 773 327"><defs><style>.cls-1
  {fill:#fff;}</style></defs><path class="cls-1" d="M752.68,157.66a70,70,0,0,1-117.4,51.46l6-8.39a29.21,29.21,0,0,1,4.14-.23c28.22-.05,39-17.56,39.37-18.11-3.52,1.37-17.21-.28-17.21-.28-9.53-.68,2.08-4.25,3.81-4.72,29.18-7.94,30.41-20.83,30.41-20.83-7,2.75-23.16-.53-23.16-.53,28.85-3.93,33.26-21.37,33.26-21.37-8.72,3.43-19.73,2.68-19.73,2.68C715.45,131.2,724,115.62,724,115.62c-50.57-.46-80.66,52.18-95,86.87l-.62,1.49-.2.5-8.31,20.23L624,195.79l0,.07a70,70,0,1,1,128.62-38.2Z"/><path class="cls-1" d="M35.47,89.46a15.15,15.15,0,1,1-15.15,15.15A15.06,15.06,0,0,1,35.47,89.46ZM24,134H47v90.9H24Z"/><path class="cls-1" d="M118.89,168.85c-19.75-6.9-42-17.64-42-42.57,0-19,16.88-38,43.92-38,28,0,43.72,21.29,43.72,21.29l-15.92,15.72s-11.12-15.15-27.8-15.15c-11.51,0-20.52,7.1-20.52,16.11,0,11.7,10.55,15.34,29,22.25,20.51,7.67,37.58,16.87,37.58,41.23S145.35,227.15,120,227.15C86.48,227.15,71,199.73,71,199.73l17.26-14.58s11.5,20.14,31.83,20.14c11.51,0,23.4-4.6,23.4-15.53C143.44,178.44,134.81,174.41,118.89,168.85Z"/><path class="cls-1" d="M202.88,89.46a15.15,15.15,0,1,1-15.15,15.15A15.06,15.06,0,0,1,202.88,89.46ZM191.37,134h23v90.9h-23Z"/><path class="cls-1" d="M279.2,227.15c-23.59,0-44.3-19.75-44.3-47.75s20.71-47.75,44.3-47.75a32.55,32.55,0,0,1,27.42,14.19V134h21.29v91.67c0,31.64-23.39,45.64-48.9,45.64-26.08,0-43.15-17.26-43.15-17.26l13-17.65s12.66,13.43,30.11,13.43c17.83,0,25.89-9.78,25.89-23.4V215.45C301.83,219.29,293.58,227.15,279.2,227.15Zm25.7-61.37s-6.52-12.65-21.67-12.65c-15.53,0-24.93,11.31-24.93,26.27s9.4,26.27,24.93,26.27c15,0,21.67-12.65,21.67-12.65Z"/><path class="cls-1" d="M433,166v58.87H410V171.73c0-13-8.05-18.6-18-18.6-11.89,0-18,11.7-18,11.7v60h-23V134H372.4v13.23a31.4,31.4,0,0,1,27.23-15.53C417.27,131.65,433,144.12,433,166Z"/><path class="cls-1" d="M471.15,89.46A15.15,15.15,0,1,1,456,104.61,15.06,15.06,0,0,1,471.15,89.46ZM459.65,134h23v90.9h-23Z"/><path class="cls-1" d="M500.87,134h18V111.71c0-25.32,17.84-34.14,32.6-34.14,12.66,0,20.14,4.8,20.14,4.8L563,101.73a15.93,15.93,0,0,0-9.21-2.68c-4.41,0-11.89,2.49-11.89,13.81V134h22.25v20.71H541.91v70.19h-23V154.66h-18Z"/></svg>